<svg xmlns="http://www.w3.org/2000/svg" width="94" height="94" fill="none"><g filter="url(#a)"><path fill="#69B9FF" d="M0 0h94v94H0z"/><path fill="#fff" fill-rule="evenodd" d="M66 19H28L9 38v28c0 5 5 9 10 9h56c6 0 10-4 10-9V38L66 19Zm-35 6h32l13 13H60c0 6-6 12-13 12s-13-6-13-12H18l13-13Zm47 41c0 2-1 3-3 3H19c-2 0-3-2-3-3V44h13c3 7 10 12 18 12s15-5 18-12h13v22Z" clip-rule="evenodd"/><path stroke="#fff" stroke-width="10" d="M5 5h84v84H5z"/></g><defs><filter id="a" width="94" height="94" x="0" y="0" color-interpolation-filters="sRGB" filterUnits="userSpaceOnUse"><feFlood flood-opacity="0" result="BackgroundImageFix"/><feColorMatrix in="SourceAlpha" result="hardAlpha" values="0 0 0 0 0 0 0 0 0 0 0 0 0 0 0 0 0 0 127 0"/><feOffset/><feColorMatrix values="0 0 0 0 0.180392 0 0 0 0 0.615686 0 0 0 0 1 0 0 0 1 0"/><feBlend in2="BackgroundImageFix" result="effect1_dropShadow_2_50"/><feBlend in="SourceGraphic" in2="effect1_dropShadow_2_50" result="shape"/></filter></defs></svg>