<svg xmlns="http://www.w3.org/2000/svg" width="94" height="94" fill="none"><g filter="url(#a)"><path fill="#69B9FF" d="M0 0h94v94H0z"/><path fill="#fff" fill-rule="evenodd" d="M41 16c-2 0-3 1-3 3v14L18 13h-5v5l20 20H19c-2 0-3 1-3 3s1 3 3 3h22c2 0 3-2 3-3V19c0-2-2-3-3-3Zm40 60L61 56h14c2 0 3-1 3-3s-1-3-3-3H53c-2 0-3 2-3 3v22c0 2 1 3 3 3s3-1 3-3V61l20 20h5v-5Z" clip-rule="evenodd"/><path stroke="#fff" stroke-width="10" d="M5 5h84v84H5z"/></g><defs><filter id="a" width="94" height="94" x="0" y="0" color-interpolation-filters="sRGB" filterUnits="userSpaceOnUse"><feFlood flood-opacity="0" result="BackgroundImageFix"/><feColorMatrix in="SourceAlpha" result="hardAlpha" values="0 0 0 0 0 0 0 0 0 0 0 0 0 0 0 0 0 0 127 0"/><feOffset/><feColorMatrix values="0 0 0 0 0.180392 0 0 0 0 0.615686 0 0 0 0 1 0 0 0 1 0"/><feBlend in2="BackgroundImageFix" result="effect1_dropShadow_2_41"/><feBlend in="SourceGraphic" in2="effect1_dropShadow_2_41" result="shape"/></filter></defs></svg>