<svg xmlns="http://www.w3.org/2000/svg" width="94" height="94" fill="none"><g filter="url(#a)"><path fill="#69B9FF" d="M0 0h94v94H0z"/><path fill="#fff" fill-rule="evenodd" d="M66 26v-7c0-6-4-10-10-10H38c-6 0-10 4-10 10v7a28 28 0 0 0 0 42v7c0 6 4 10 10 10h18c6 0 10-4 10-10v-7a28 28 0 0 0 0-42Zm-32-7c0-2 2-3 4-3h18c2 0 4 1 4 3v3c-4-2-9-3-13-3s-9 1-13 3v-3Zm26 56c0 2-2 3-4 3H38c-2 0-4-1-4-3v-3c4 2 9 3 13 3s9-1 13-3v3Zm-13-6c-12 0-22-10-22-22s10-22 22-22 22 10 22 22-10 22-22 22Zm3-23V34c0-1-1-3-3-3s-3 2-3 3v13l1 2 6 6 2 1 2-1c2-1 2-3 0-4l-5-5Z" clip-rule="evenodd"/><path stroke="#fff" stroke-width="10" d="M5 5h84v84H5z"/></g><defs><filter id="a" width="94" height="94" x="0" y="0" color-interpolation-filters="sRGB" filterUnits="userSpaceOnUse"><feFlood flood-opacity="0" result="BackgroundImageFix"/><feColorMatrix in="SourceAlpha" result="hardAlpha" values="0 0 0 0 0 0 0 0 0 0 0 0 0 0 0 0 0 0 127 0"/><feOffset/><feColorMatrix values="0 0 0 0 0.180392 0 0 0 0 0.615686 0 0 0 0 1 0 0 0 1 0"/><feBlend in2="BackgroundImageFix" result="effect1_dropShadow_2_30"/><feBlend in="SourceGraphic" in2="effect1_dropShadow_2_30" result="shape"/></filter></defs></svg>